<svg data-v-fde0c5aa="" xmlns="http://www.w3.org/2000/svg" viewBox="0 0 300 300" class="iconLeftSlogan"><!----><defs data-v-fde0c5aa=""><!----></defs><rect data-v-fde0c5aa="" fill="#EEF1F8" x="0" y="0" width="300px" height="300px" class="logo-background-square"></rect><defs data-v-fde0c5aa=""><!----></defs><g data-v-fde0c5aa="" id="3200b8b1-664f-43bb-8603-f3d720b26440" fill="#3E2835" transform="matrix(1.701959490776062,0,0,1.701959490776062,103.69204658819162,126.78428478037105)"><path d="M1.50 12.62L1.50 2.96L4.17 2.96L4.17 2.96Q5.01 2.96 5.68 3.28L5.68 3.28L5.68 3.28Q6.36 3.60 6.74 4.20L6.74 4.20L6.74 4.20Q7.12 4.81 7.12 5.61L7.12 5.61L7.12 5.61Q7.12 6.25 6.87 6.78L6.87 6.78L6.87 6.78Q6.61 7.31 6.14 7.65L6.14 7.65L6.14 7.65Q5.66 7.99 5.02 8.10L5.02 8.10L7.63 12.62L6.54 12.62L4.12 8.24L2.42 8.24L2.42 12.62L1.50 12.62ZM2.43 7.34L4.35 7.34L4.35 7.34Q5.20 7.30 5.71 6.85L5.71 6.85L5.71 6.85Q6.23 6.40 6.23 5.59L6.23 5.59L6.23 5.59Q6.23 5.02 5.96 4.61L5.96 4.61L5.96 4.61Q5.70 4.20 5.24 3.99L5.24 3.99L5.24 3.99Q4.78 3.77 4.18 3.77L4.18 3.77L2.43 3.77L2.43 7.34ZM10.97 12.74L10.97 12.74Q10.34 12.74 9.85 12.50L9.85 12.50L9.85 12.50Q9.37 12.26 9.09 11.82L9.09 11.82L9.09 11.82Q8.82 11.37 8.82 10.76L8.82 10.76L8.82 10.76Q8.82 8.74 11.89 8.74L11.89 8.74L13.41 8.74L13.41 8.74Q13.41 7.62 13.00 7L13.00 7L13.00 7Q12.59 6.38 11.65 6.38L11.65 6.38L11.65 6.38Q10.45 6.38 9.69 7.42L9.69 7.42L9.07 6.94L9.07 6.94Q10.01 5.63 11.57 5.63L11.57 5.63L11.57 5.63Q12.41 5.63 13.00 5.97L13.00 5.97L13.00 5.97Q13.58 6.32 13.88 6.94L13.88 6.94L13.88 6.94Q14.18 7.57 14.18 8.41L14.18 8.41L14.18 12.61L13.44 12.61L13.44 11.20L13.44 11.20Q13.10 11.97 12.43 12.36L12.43 12.36L12.43 12.36Q11.77 12.74 10.97 12.74L10.97 12.74ZM11.06 12.02L11.06 12.02Q11.78 12.02 12.31 11.62L12.31 11.62L12.31 11.62Q12.84 11.23 13.13 10.63L13.13 10.63L13.13 10.63Q13.41 10.02 13.41 9.41L13.41 9.41L12.00 9.41L12.00 9.41Q10.83 9.41 10.27 9.72L10.27 9.72L10.27 9.72Q9.71 10.03 9.71 10.77L9.71 10.77L9.71 10.77Q9.71 11.42 10.09 11.72L10.09 11.72L10.09 11.72Q10.46 12.02 11.06 12.02L11.06 12.02ZM16.69 12.61L16.69 6.47L15.44 6.47L15.44 5.78L16.69 5.78L16.69 4.57L16.69 4.57Q16.69 3.99 16.92 3.59L16.92 3.59L16.92 3.59Q17.16 3.19 17.55 3.00L17.55 3.00L17.55 3.00Q17.95 2.80 18.45 2.80L18.45 2.80L18.45 2.80Q19.02 2.80 19.54 3.06L19.54 3.06L19.37 3.73L19.37 3.73Q18.89 3.51 18.50 3.51L18.50 3.51L18.50 3.51Q18.05 3.51 17.79 3.78L17.79 3.78L17.79 3.78Q17.53 4.06 17.53 4.60L17.53 4.60L17.53 5.78L19.58 5.78L19.58 6.47L17.53 6.47L17.53 12.61L16.69 12.61ZM22.54 12.74L22.54 12.74Q21.91 12.74 21.42 12.50L21.42 12.50L21.42 12.50Q20.93 12.26 20.66 11.82L20.66 11.82L20.66 11.82Q20.38 11.37 20.38 10.76L20.38 10.76L20.38 10.76Q20.38 8.74 23.46 8.74L23.46 8.74L24.98 8.74L24.98 8.74Q24.98 7.62 24.57 7L24.57 7L24.57 7Q24.16 6.38 23.21 6.38L23.21 6.38L23.21 6.38Q22.02 6.38 21.25 7.42L21.25 7.42L20.64 6.94L20.64 6.94Q21.57 5.63 23.14 5.63L23.14 5.63L23.14 5.63Q23.98 5.63 24.56 5.97L24.56 5.97L24.56 5.97Q25.15 6.32 25.45 6.94L25.45 6.94L25.45 6.94Q25.74 7.57 25.74 8.41L25.74 8.41L25.74 12.61L25.01 12.61L25.01 11.20L25.01 11.20Q24.66 11.97 24.00 12.36L24.00 12.36L24.00 12.36Q23.34 12.74 22.54 12.74L22.54 12.74ZM22.63 12.02L22.63 12.02Q23.34 12.02 23.88 11.62L23.88 11.62L23.88 11.62Q24.41 11.23 24.69 10.63L24.69 10.63L24.69 10.63Q24.98 10.02 24.98 9.41L24.98 9.41L23.56 9.41L23.56 9.41Q22.39 9.41 21.84 9.72L21.84 9.72L21.84 9.72Q21.28 10.03 21.28 10.77L21.28 10.77L21.28 10.77Q21.28 11.42 21.65 11.72L21.65 11.72L21.65 11.72Q22.03 12.02 22.63 12.02L22.63 12.02ZM30.44 12.69L30.44 12.69Q29.47 12.69 28.80 12.22L28.80 12.22L28.80 12.22Q28.12 11.76 27.79 10.98L27.79 10.98L27.79 10.98Q27.45 10.19 27.45 9.23L27.45 9.23L27.45 9.23Q27.45 8.28 27.78 7.47L27.78 7.47L27.78 7.47Q28.12 6.67 28.76 6.18L28.76 6.18L28.76 6.18Q29.41 5.69 30.32 5.69L30.32 5.69L30.32 5.69Q31.35 5.69 31.98 6.16L31.98 6.16L31.98 6.16Q32.61 6.64 32.88 7.38L32.88 7.38L32.88 7.38Q33.15 8.13 33.15 9.00L33.15 9.00L33.15 9.00Q33.15 9.24 33.13 9.48L33.13 9.48L28.35 9.48L28.35 9.48Q28.33 10.15 28.56 10.71L28.56 10.71L28.56 10.71Q28.80 11.27 29.27 11.61L29.27 11.61L29.27 11.61Q29.75 11.95 30.43 11.95L30.43 11.95L30.43 11.95Q31.08 11.95 31.55 11.79L31.55 11.79L31.55 11.79Q32.02 11.63 32.41 11.22L32.41 11.22L33.00 11.67L33.00 11.67Q32.44 12.21 31.85 12.45L31.85 12.45L31.85 12.45Q31.25 12.69 30.44 12.69L30.44 12.69ZM28.35 8.74L32.34 8.74L32.34 8.74Q32.34 8.13 32.15 7.60L32.15 7.60L32.15 7.60Q31.95 7.07 31.50 6.73L31.50 6.73L31.50 6.73Q31.05 6.39 30.32 6.39L30.32 6.39L30.32 6.39Q29.70 6.39 29.25 6.71L29.25 6.71L29.25 6.71Q28.81 7.03 28.59 7.57L28.59 7.57L28.59 7.57Q28.37 8.10 28.35 8.74L28.35 8.74ZM36.01 12.74L36.01 12.74Q35.55 12.74 35.33 12.57L35.33 12.57L35.33 12.57Q35.11 12.39 35.05 12.13L35.05 12.13L35.05 12.13Q34.99 11.87 34.99 11.46L34.99 11.46L34.99 11.22L34.99 2.95L35.85 2.95L35.85 11.64L35.85 11.64Q35.85 11.74 35.85 11.76L35.85 11.76L35.85 11.76Q35.85 11.78 35.92 11.89L35.92 11.89L35.92 11.89Q35.98 12.00 36.13 12.00L36.13 12.00L36.13 12.00Q36.50 12.00 36.85 11.94L36.85 11.94L36.85 12.61L36.85 12.61Q36.70 12.66 36.47 12.70L36.47 12.70L36.47 12.70Q36.24 12.74 36.01 12.74L36.01 12.74ZM46.18 12.74L46.18 12.74Q44.79 12.74 43.84 12.08L43.84 12.08L43.84 12.08Q42.90 11.42 42.43 10.29L42.43 10.29L42.43 10.29Q41.96 9.16 41.96 7.75L41.96 7.75L41.96 7.75Q41.96 6.35 42.42 5.23L42.42 5.23L42.42 5.23Q42.88 4.12 43.85 3.45L43.85 3.45L43.85 3.45Q44.82 2.79 46.29 2.79L46.29 2.79L46.29 2.79Q47.65 2.79 48.61 3.40L48.61 3.40L48.61 3.40Q49.57 4.02 50.05 5.31L50.05 5.31L49.21 5.69L49.21 5.69Q48.92 4.60 48.10 4.12L48.10 4.12L48.10 4.12Q47.27 3.63 46.23 3.63L46.23 3.63L46.23 3.63Q45.07 3.63 44.31 4.19L44.31 4.19L44.31 4.19Q43.56 4.75 43.21 5.68L43.21 5.68L43.21 5.68Q42.87 6.60 42.87 7.75L42.87 7.75L42.87 7.75Q42.87 8.90 43.22 9.84L43.22 9.84L43.22 9.84Q43.57 10.78 44.33 11.34L44.33 11.34L44.33 11.34Q45.10 11.91 46.26 11.91L46.26 11.91L46.26 11.91Q47.28 11.91 48.05 11.42L48.05 11.42L48.05 11.42Q48.83 10.93 49.23 9.83L49.23 9.83L50.07 10.21L50.07 10.21Q49.53 11.43 48.54 12.09L48.54 12.09L48.54 12.09Q47.54 12.74 46.18 12.74L46.18 12.74ZM53.44 12.74L53.44 12.74Q52.81 12.74 52.32 12.50L52.32 12.50L52.32 12.50Q51.83 12.26 51.56 11.82L51.56 11.82L51.56 11.82Q51.28 11.37 51.28 10.76L51.28 10.76L51.28 10.76Q51.28 8.74 54.36 8.74L54.36 8.74L55.88 8.74L55.88 8.74Q55.88 7.62 55.47 7L55.47 7L55.47 7Q55.06 6.38 54.11 6.38L54.11 6.38L54.11 6.38Q52.92 6.38 52.15 7.42L52.15 7.42L51.54 6.94L51.54 6.94Q52.47 5.63 54.04 5.63L54.04 5.63L54.04 5.63Q54.88 5.63 55.46 5.97L55.46 5.97L55.46 5.97Q56.05 6.32 56.35 6.94L56.35 6.94L56.35 6.94Q56.64 7.57 56.64 8.41L56.64 8.41L56.64 12.61L55.90 12.61L55.90 11.20L55.90 11.20Q55.56 11.97 54.90 12.36L54.90 12.36L54.90 12.36Q54.24 12.74 53.44 12.74L53.44 12.74ZM53.53 12.02L53.53 12.02Q54.24 12.02 54.78 11.62L54.78 11.62L54.78 11.62Q55.31 11.23 55.59 10.63L55.59 10.63L55.59 10.63Q55.88 10.02 55.88 9.41L55.88 9.41L54.46 9.41L54.46 9.41Q53.29 9.41 52.74 9.72L52.74 9.72L52.74 9.72Q52.18 10.03 52.18 10.77L52.18 10.77L52.18 10.77Q52.18 11.42 52.55 11.72L52.55 11.72L52.55 11.72Q52.92 12.02 53.53 12.02L53.53 12.02ZM63.25 2.95L64.11 2.95L64.11 12.61L63.25 12.61L63.25 11.61L63.25 11.61Q62.88 12.14 62.36 12.44L62.36 12.44L62.36 12.44Q61.84 12.74 61.07 12.74L61.07 12.74L61.07 12.74Q60.25 12.74 59.63 12.27L59.63 12.27L59.63 12.27Q59.02 11.80 58.70 10.99L58.70 10.99L58.70 10.99Q58.38 10.18 58.38 9.19L58.38 9.19L58.38 9.19Q58.38 8.20 58.70 7.39L58.70 7.39L58.70 7.39Q59.02 6.58 59.63 6.10L59.63 6.10L59.63 6.10Q60.25 5.63 61.07 5.63L61.07 5.63L61.07 5.63Q62.50 5.63 63.25 6.77L63.25 6.77L63.25 2.95ZM61.29 12.04L61.29 12.04Q61.98 12.04 62.44 11.65L62.44 11.65L62.44 11.65Q62.90 11.25 63.11 10.61L63.11 10.61L63.11 10.61Q63.32 9.96 63.32 9.19L63.32 9.19L63.32 9.19Q63.32 8.42 63.11 7.78L63.11 7.78L63.11 7.78Q62.90 7.13 62.44 6.73L62.44 6.73L62.44 6.73Q61.98 6.33 61.29 6.33L61.29 6.33L61.29 6.33Q60.61 6.33 60.16 6.73L60.16 6.73L60.16 6.73Q59.70 7.13 59.48 7.78L59.48 7.78L59.48 7.78Q59.26 8.43 59.26 9.19L59.26 9.19L59.26 9.19Q59.26 9.95 59.48 10.60L59.48 10.60L59.48 10.60Q59.70 11.25 60.16 11.65L60.16 11.65L60.16 11.65Q60.61 12.04 61.29 12.04L61.29 12.04ZM69.10 12.74L69.10 12.74Q68.19 12.74 67.47 12.26L67.47 12.26L67.47 12.26Q66.75 11.78 66.35 10.96L66.35 10.96L66.35 10.96Q65.95 10.14 65.95 9.17L65.95 9.17L65.95 9.17Q65.95 8.20 66.35 7.39L66.35 7.39L66.35 7.39Q66.75 6.58 67.47 6.11L67.47 6.11L67.47 6.11Q68.19 5.63 69.10 5.63L69.10 5.63L69.10 5.63Q70.02 5.63 70.75 6.11L70.75 6.11L70.75 6.11Q71.48 6.58 71.89 7.40L71.89 7.40L71.89 7.40Q72.30 8.21 72.30 9.17L72.30 9.17L72.30 9.17Q72.30 10.14 71.89 10.96L71.89 10.96L71.89 10.96Q71.48 11.78 70.75 12.26L70.75 12.26L70.75 12.26Q70.02 12.74 69.10 12.74L69.10 12.74ZM69.12 12.04L69.12 12.04Q69.88 12.04 70.40 11.64L70.40 11.64L70.40 11.64Q70.93 11.23 71.19 10.58L71.19 10.58L71.19 10.58Q71.44 9.92 71.44 9.17L71.44 9.17L71.44 9.17Q71.44 8.43 71.19 7.78L71.19 7.78L71.19 7.78Q70.93 7.13 70.41 6.73L70.41 6.73L70.41 6.73Q69.89 6.33 69.13 6.33L69.13 6.33L69.13 6.33Q68.38 6.33 67.85 6.73L67.85 6.73L67.85 6.73Q67.33 7.13 67.07 7.78L67.07 7.78L67.07 7.78Q66.81 8.43 66.81 9.17L66.81 9.17L66.81 9.17Q66.81 9.93 67.07 10.58L67.07 10.58L67.07 10.58Q67.33 11.24 67.85 11.64L67.85 11.64L67.85 11.64Q68.37 12.04 69.12 12.04L69.12 12.04ZM74.13 12.61L74.13 5.78L75.00 5.78L75.00 7.01L75.00 7.01Q75.27 6.38 75.83 6.01L75.83 6.01L75.83 6.01Q76.39 5.63 77.05 5.63L77.05 5.63L77.05 5.63Q77.65 5.63 78.12 5.95L78.12 5.95L77.77 6.71L77.77 6.71Q77.47 6.45 76.92 6.45L76.92 6.45L76.92 6.45Q75.98 6.45 75.48 7.14L75.48 7.14L75.48 7.14Q74.98 7.83 74.98 9.06L74.98 9.06L74.98 12.61L74.13 12.61ZM79.54 12.61L79.54 5.78L80.39 5.78L80.39 7.06L80.39 7.06Q80.73 6.41 81.30 6.04L81.30 6.04L81.30 6.04Q81.87 5.66 82.65 5.66L82.65 5.66L82.65 5.66Q83.41 5.66 83.91 6.03L83.91 6.03L83.91 6.03Q84.41 6.40 84.65 7.03L84.65 7.03L84.65 7.03Q84.88 7.66 84.88 8.45L84.88 8.45L84.88 12.61L84.03 12.61L84.03 8.52L84.03 8.52Q84.03 7.64 83.66 7.00L83.66 7.00L83.66 7.00Q83.29 6.36 82.42 6.36L82.42 6.36L82.42 6.36Q81.85 6.36 81.39 6.68L81.39 6.68L81.39 6.68Q80.93 6.99 80.66 7.61L80.66 7.61L80.66 7.61Q80.39 8.22 80.39 9.11L80.39 9.11L80.39 12.61L79.54 12.61ZM88.63 12.74L88.63 12.74Q88.01 12.74 87.52 12.50L87.52 12.50L87.52 12.50Q87.03 12.26 86.75 11.82L86.75 11.82L86.75 11.82Q86.48 11.37 86.48 10.76L86.48 10.76L86.48 10.76Q86.48 8.74 89.56 8.74L89.56 8.74L91.08 8.74L91.08 8.74Q91.08 7.62 90.67 7L90.67 7L90.67 7Q90.25 6.38 89.31 6.38L89.31 6.38L89.31 6.38Q88.12 6.38 87.35 7.42L87.35 7.42L86.73 6.94L86.73 6.94Q87.67 5.63 89.24 5.63L89.24 5.63L89.24 5.63Q90.08 5.63 90.66 5.97L90.66 5.97L90.66 5.97Q91.25 6.32 91.54 6.94L91.54 6.94L91.54 6.94Q91.84 7.57 91.84 8.41L91.84 8.41L91.84 12.61L91.10 12.61L91.10 11.20L91.10 11.20Q90.76 11.97 90.10 12.36L90.10 12.36L90.10 12.36Q89.43 12.74 88.63 12.74L88.63 12.74ZM88.72 12.02L88.72 12.02Q89.44 12.02 89.97 11.62L89.97 11.62L89.97 11.62Q90.51 11.23 90.79 10.63L90.79 10.63L90.79 10.63Q91.08 10.02 91.08 9.41L91.08 9.41L89.66 9.41L89.66 9.41Q88.49 9.41 87.93 9.72L87.93 9.72L87.93 9.72Q87.38 10.03 87.38 10.77L87.38 10.77L87.38 10.77Q87.38 11.42 87.75 11.72L87.75 11.72L87.75 11.72Q88.12 12.02 88.72 12.02L88.72 12.02Z"></path></g><defs data-v-fde0c5aa=""><linearGradient data-v-fde0c5aa="" gradientTransform="rotate(25)" id="e41ebd94-b81f-46f5-8992-8c450cba7dd2" x1="0%" y1="0%" x2="100%" y2="0%"><stop data-v-fde0c5aa="" offset="0%" stop-color="#D6413F" stop-opacity="1"></stop><stop data-v-fde0c5aa="" offset="100%" stop-color="#4285D3" stop-opacity="1"></stop></linearGradient></defs><g data-v-fde0c5aa="" id="f38dcaa0-8469-4b74-99ba-70386f6a1911" stroke="none" fill="url(#e41ebd94-b81f-46f5-8992-8c450cba7dd2)" transform="matrix(0.8451585173606873,0,0,0.8451585173606873,40,130.1387751289389)"><defs><style></style></defs><path d="M9.5 0A9.5 9.5 0 0 0 0 9.5v28A9.5 9.5 0 0 0 9.5 47h44a9.5 9.5 0 0 0 9.5-9.5v-28A9.5 9.5 0 0 0 53.5 0h-44zm0 3h44A6.5 6.5 0 0 1 60 9.5V14H3V9.5A6.5 6.5 0 0 1 9.5 3zm3.25 3a2.853 2.853 0 0 0-2.844 2.844c0 1.563 1.281 2.812 2.844 2.812s2.844-1.25 2.844-2.812A2.853 2.853 0 0 0 12.75 6zm10.188 0c-1.563 0-2.813 1.28-2.813 2.844a2.8 2.8 0 0 0 2.813 2.812c1.563 0 2.843-1.25 2.843-2.812A2.853 2.853 0 0 0 22.938 6zM32 6a2.853 2.853 0 0 0-2.844 2.844c0 1.563 1.281 2.812 2.844 2.812a2.8 2.8 0 0 0 2.813-2.812C34.813 7.28 33.562 6 32 6zM3 17h57v20.5a6.5 6.5 0 0 1-6.5 6.5h-44A6.5 6.5 0 0 1 3 37.5V17zm14.969 6c-.446.05-.847.294-1.094.688l-8.219 13a1.53 1.53 0 0 0 .469 2.093c.248.158.507.219.781.219.497 0 .996-.236 1.281-.688l6.157-9.75 1.281 7.22c.082.454.372.846.781 1.062a1.5 1.5 0 0 0 1.313.031l4.906-2.188 5.813 4.032c.349.245.772.345 1.187.25.415-.1.764-.375.969-.75l6.125-11.282 11.875 11.625c.59.579 1.545.593 2.125 0 .58-.591.593-1.544 0-2.124L40.406 23.405A1.535 1.535 0 0 0 39.125 23c-.465.07-.869.336-1.094.75L31.75 35.313l-5.125-3.563a1.506 1.506 0 0 0-1.469-.156l-3.906 1.781-1.656-9.156c-.11-.61-.58-1.1-1.188-1.219a1.404 1.404 0 0 0-.437 0z"></path></g><defs data-v-fde0c5aa=""><!----></defs><g data-v-fde0c5aa="" id="d9e54e58-39e1-4cdb-a9d4-f5917f8301ed" fill="#3E2835" transform="matrix(0.5655252933502197,0,0,0.5655252933502197,105.88870490481112,155.25506484738452)"><path d="M6.59 9.21L6.59 8.71L6.59 8.71Q6.59 8.23 6.41 7.87L6.41 7.87L6.41 7.87Q6.22 7.50 5.89 7.27L5.89 7.27L5.89 7.27Q5.57 7.03 5.15 6.90L5.15 6.90L5.15 6.90Q4.73 6.78 4.27 6.78L4.27 6.78L4.27 6.78Q3.86 6.78 3.50 6.88L3.50 6.88L3.50 6.88Q3.14 6.99 2.85 7.18L2.85 7.18L2.85 7.18Q2.56 7.38 2.39 7.66L2.39 7.66L2.39 7.66Q2.23 7.95 2.23 8.33L2.23 8.33L2.23 8.41L2.23 8.41Q2.23 8.82 2.39 9.11L2.39 9.11L2.39 9.11Q2.56 9.39 2.89 9.60L2.89 9.60L2.89 9.60Q3.22 9.80 3.71 9.93L3.71 9.93L3.71 9.93Q4.20 10.07 4.86 10.16L4.86 10.16L4.86 10.16Q6.40 10.40 7.13 11.07L7.13 11.07L7.13 11.07Q7.85 11.73 7.85 12.85L7.85 12.85L7.85 13.02L7.85 13.02Q7.85 13.65 7.64 14.17L7.64 14.17L7.64 14.17Q7.42 14.70 6.99 15.08L6.99 15.08L6.99 15.08Q6.57 15.46 5.94 15.67L5.94 15.67L5.94 15.67Q5.31 15.88 4.48 15.88L4.48 15.88L4.48 15.88Q3.54 15.88 2.82 15.60L2.82 15.60L2.82 15.60Q2.10 15.33 1.62 14.85L1.62 14.85L1.62 14.85Q1.13 14.36 0.88 13.71L0.88 13.71L0.88 13.71Q0.63 13.06 0.63 12.29L0.63 12.29L0.63 11.87L1.81 11.87L1.81 12.21L1.81 12.21Q1.81 13.50 2.51 14.14L2.51 14.14L2.51 14.14Q3.22 14.78 4.48 14.78L4.48 14.78L4.48 14.78Q5.57 14.78 6.13 14.30L6.13 14.30L6.13 14.30Q6.68 13.82 6.68 13.02L6.68 13.02L6.68 12.94L6.68 12.94Q6.68 12.17 6.11 11.76L6.11 11.76L6.11 11.76Q5.54 11.35 4.27 11.17L4.27 11.17L4.27 11.17Q3.53 11.07 2.93 10.87L2.93 10.87L2.93 10.87Q2.34 10.67 1.92 10.34L1.92 10.34L1.92 10.34Q1.50 10.01 1.27 9.55L1.27 9.55L1.27 9.55Q1.05 9.09 1.05 8.46L1.05 8.46L1.05 8.29L1.05 8.29Q1.05 7.71 1.29 7.24L1.29 7.24L1.29 7.24Q1.53 6.76 1.95 6.41L1.95 6.41L1.95 6.41Q2.38 6.06 2.98 5.87L2.98 5.87L2.98 5.87Q3.57 5.68 4.28 5.68L4.28 5.68L4.28 5.68Q5.11 5.68 5.76 5.92L5.76 5.92L5.76 5.92Q6.41 6.16 6.86 6.56L6.86 6.56L6.86 6.56Q7.31 6.96 7.54 7.50L7.54 7.50L7.54 7.50Q7.77 8.04 7.77 8.62L7.77 8.62L7.77 9.21L6.59 9.21ZM16.41 11.87L16.41 9.69L16.41 9.69Q16.41 7.78 17.32 6.73L17.32 6.73L17.32 6.73Q18.23 5.68 19.85 5.68L19.85 5.68L19.85 5.68Q21.48 5.68 22.39 6.73L22.39 6.73L22.39 6.73Q23.30 7.78 23.30 9.69L23.30 9.69L23.30 11.87L23.30 11.87Q23.30 13.83 22.39 14.85L22.39 14.85L22.39 14.85Q21.48 15.88 19.85 15.88L19.85 15.88L19.85 15.88Q18.23 15.88 17.32 14.85L17.32 14.85L17.32 14.85Q16.41 13.83 16.41 11.87L16.41 11.87ZM19.85 14.78L19.85 14.78L19.85 14.78Q20.99 14.78 21.55 14.01L21.55 14.01L21.55 14.01Q22.12 13.23 22.12 11.79L22.12 11.79L22.12 9.77L22.12 9.77Q22.12 8.43 21.55 7.60L21.55 7.60L21.55 7.60Q20.99 6.78 19.85 6.78L19.85 6.78L19.85 6.78Q18.72 6.78 18.15 7.60L18.15 7.60L18.15 7.60Q17.58 8.43 17.58 9.77L17.58 9.77L17.58 11.79L17.58 11.79Q17.58 13.23 18.15 14.01L18.15 14.01L18.15 14.01Q18.72 14.78 19.85 14.78ZM32.47 15.68L32.47 5.88L38.49 5.88L38.49 6.97L33.64 6.97L33.64 10.22L38.40 10.22L38.40 11.31L33.64 11.31L33.64 15.68L32.47 15.68ZM47.54 6.97L47.54 5.88L54.43 5.88L54.43 6.97L51.58 6.97L51.58 15.68L50.40 15.68L50.40 6.97L47.54 6.97ZM70.69 5.88L69.69 15.68L67.55 15.68L66.64 6.38L66.47 6.38L65.56 15.68L63.42 15.68L62.43 5.88L63.49 5.88L64.43 15.18L64.60 15.18L65.48 5.88L67.63 5.88L68.52 15.18L68.68 15.18L69.62 5.88L70.69 5.88ZM84.94 15.68L84.22 13.24L80.02 13.24L79.31 15.68L78.05 15.68L81.02 5.88L83.23 5.88L86.20 15.68L84.94 15.68ZM82.21 6.38L82.04 6.38L80.35 12.15L83.90 12.15L82.21 6.38ZM100.76 12.15L100.76 15.68L99.58 15.68L99.58 12.40L99.58 12.40Q99.58 12.04 99.41 11.84L99.41 11.84L99.41 11.84Q99.25 11.65 98.83 11.65L98.83 11.65L95.77 11.65L95.77 15.68L94.60 15.68L94.60 5.88L98.10 5.88L98.10 5.88Q98.85 5.88 99.41 6.10L99.41 6.10L99.41 6.10Q99.97 6.31 100.34 6.68L100.34 6.68L100.34 6.68Q100.72 7.04 100.91 7.53L100.91 7.53L100.91 7.53Q101.09 8.01 101.09 8.54L101.09 8.54L101.09 8.96L101.09 8.96Q101.09 9.51 100.79 10.05L100.79 10.05L100.79 10.05Q100.49 10.60 99.86 10.89L99.86 10.89L99.86 11.06L99.86 11.06Q100.28 11.13 100.52 11.40L100.52 11.40L100.52 11.40Q100.76 11.66 100.76 12.15L100.76 12.15ZM95.77 6.97L95.77 10.56L97.96 10.56L97.96 10.56Q98.95 10.56 99.44 10.13L99.44 10.13L99.44 10.13Q99.92 9.70 99.92 8.88L99.92 8.88L99.92 8.62L99.92 8.62Q99.92 7.88 99.44 7.43L99.44 7.43L99.44 7.43Q98.95 6.97 97.96 6.97L97.96 6.97L95.77 6.97ZM110.29 15.68L110.29 5.88L116.23 5.88L116.23 6.97L111.47 6.97L111.47 10.22L116.14 10.22L116.14 11.31L111.47 11.31L111.47 14.59L116.31 14.59L116.31 15.68L110.29 15.68ZM146.71 9.21L146.71 8.71L146.71 8.71Q146.71 8.23 146.52 7.87L146.52 7.87L146.52 7.87Q146.33 7.50 146.01 7.27L146.01 7.27L146.01 7.27Q145.68 7.03 145.26 6.90L145.26 6.90L145.26 6.90Q144.84 6.78 144.38 6.78L144.38 6.78L144.38 6.78Q143.98 6.78 143.61 6.88L143.61 6.88L143.61 6.88Q143.25 6.99 142.96 7.18L142.96 7.18L142.96 7.18Q142.67 7.38 142.51 7.66L142.51 7.66L142.51 7.66Q142.34 7.95 142.34 8.33L142.34 8.33L142.34 8.41L142.34 8.41Q142.34 8.82 142.51 9.11L142.51 9.11L142.51 9.11Q142.67 9.39 143.00 9.60L143.00 9.60L143.00 9.60Q143.33 9.80 143.82 9.93L143.82 9.93L143.82 9.93Q144.31 10.07 144.97 10.16L144.97 10.16L144.97 10.16Q146.51 10.40 147.24 11.07L147.24 11.07L147.24 11.07Q147.97 11.73 147.97 12.85L147.97 12.85L147.97 13.02L147.97 13.02Q147.97 13.65 147.75 14.17L147.75 14.17L147.75 14.17Q147.53 14.70 147.10 15.08L147.10 15.08L147.10 15.08Q146.68 15.46 146.05 15.67L146.05 15.67L146.05 15.67Q145.42 15.88 144.59 15.88L144.59 15.88L144.59 15.88Q143.65 15.88 142.93 15.60L142.93 15.60L142.93 15.60Q142.21 15.33 141.73 14.85L141.73 14.85L141.73 14.85Q141.25 14.36 140.99 13.71L140.99 13.71L140.99 13.71Q140.74 13.06 140.74 12.29L140.74 12.29L140.74 11.87L141.92 11.87L141.92 12.21L141.92 12.21Q141.92 13.50 142.63 14.14L142.63 14.14L142.63 14.14Q143.33 14.78 144.59 14.78L144.59 14.78L144.59 14.78Q145.68 14.78 146.24 14.30L146.24 14.30L146.24 14.30Q146.79 13.82 146.79 13.02L146.79 13.02L146.79 12.94L146.79 12.94Q146.79 12.17 146.22 11.76L146.22 11.76L146.22 11.76Q145.66 11.35 144.38 11.17L144.38 11.17L144.38 11.17Q143.64 11.07 143.04 10.87L143.04 10.87L143.04 10.87Q142.45 10.67 142.03 10.34L142.03 10.34L142.03 10.34Q141.61 10.01 141.39 9.55L141.39 9.55L141.39 9.55Q141.16 9.09 141.16 8.46L141.16 8.46L141.16 8.29L141.16 8.29Q141.16 7.71 141.40 7.24L141.40 7.24L141.40 7.24Q141.64 6.76 142.06 6.41L142.06 6.41L142.06 6.41Q142.49 6.06 143.09 5.87L143.09 5.87L143.09 5.87Q143.68 5.68 144.40 5.68L144.40 5.68L144.40 5.68Q145.22 5.68 145.87 5.92L145.87 5.92L145.87 5.92Q146.52 6.16 146.97 6.56L146.97 6.56L146.97 6.56Q147.42 6.96 147.65 7.50L147.65 7.50L147.65 7.50Q147.88 8.04 147.88 8.62L147.88 8.62L147.88 9.21L146.71 9.21ZM156.52 11.87L156.52 9.69L156.52 9.69Q156.52 7.78 157.43 6.73L157.43 6.73L157.43 6.73Q158.34 5.68 159.96 5.68L159.96 5.68L159.96 5.68Q161.59 5.68 162.50 6.73L162.50 6.73L162.50 6.73Q163.41 7.78 163.41 9.69L163.41 9.69L163.41 11.87L163.41 11.87Q163.41 13.83 162.50 14.85L162.50 14.85L162.50 14.85Q161.59 15.88 159.96 15.88L159.96 15.88L159.96 15.88Q158.34 15.88 157.43 14.85L157.43 14.85L157.43 14.85Q156.52 13.83 156.52 11.87L156.52 11.87ZM159.96 14.78L159.96 14.78L159.96 14.78Q161.10 14.78 161.67 14.01L161.67 14.01L161.67 14.01Q162.23 13.23 162.23 11.79L162.23 11.79L162.23 9.77L162.23 9.77Q162.23 8.43 161.67 7.60L161.67 7.60L161.67 7.60Q161.10 6.78 159.96 6.78L159.96 6.78L159.96 6.78Q158.83 6.78 158.26 7.60L158.26 7.60L158.26 7.60Q157.70 8.43 157.70 9.77L157.70 9.77L157.70 11.79L157.70 11.79Q157.70 13.23 158.26 14.01L158.26 14.01L158.26 14.01Q158.83 14.78 159.96 14.78ZM172.47 15.68L172.47 5.88L173.64 5.88L173.64 14.59L178.77 14.59L178.77 15.68L172.47 15.68ZM187.74 5.88L188.92 5.88L188.92 12.38L188.92 12.38Q188.92 13.57 189.47 14.17L189.47 14.17L189.47 14.17Q190.02 14.78 191.10 14.78L191.10 14.78L191.10 14.78Q192.18 14.78 192.73 14.17L192.73 14.17L192.73 14.17Q193.28 13.57 193.28 12.38L193.28 12.38L193.28 5.88L194.46 5.88L194.46 12.38L194.46 12.38Q194.46 14.08 193.56 14.98L193.56 14.98L193.56 14.98Q192.67 15.88 191.10 15.88L191.10 15.88L191.10 15.88Q189.53 15.88 188.64 14.98L188.64 14.98L188.64 14.98Q187.74 14.08 187.74 12.38L187.74 12.38L187.74 5.88ZM203.22 6.97L203.22 5.88L210.11 5.88L210.11 6.97L207.26 6.97L207.26 15.68L206.08 15.68L206.08 6.97L203.22 6.97ZM219.13 6.97L219.13 5.88L225.34 5.88L225.34 6.97L222.82 6.97L222.82 14.59L225.34 14.59L225.34 15.68L219.13 15.68L219.13 14.59L221.65 14.59L221.65 6.97L219.13 6.97ZM234.36 11.87L234.36 9.69L234.36 9.69Q234.36 7.78 235.27 6.73L235.27 6.73L235.27 6.73Q236.18 5.68 237.80 5.68L237.80 5.68L237.80 5.68Q239.43 5.68 240.34 6.73L240.34 6.73L240.34 6.73Q241.25 7.78 241.25 9.69L241.25 9.69L241.25 11.87L241.25 11.87Q241.25 13.83 240.34 14.85L240.34 14.85L240.34 14.85Q239.43 15.88 237.80 15.88L237.80 15.88L237.80 15.88Q236.18 15.88 235.27 14.85L235.27 14.85L235.27 14.85Q234.36 13.83 234.36 11.87L234.36 11.87ZM237.80 14.78L237.80 14.78L237.80 14.78Q238.94 14.78 239.51 14.01L239.51 14.01L239.51 14.01Q240.07 13.23 240.07 11.79L240.07 11.79L240.07 9.77L240.07 9.77Q240.07 8.43 239.51 7.60L239.51 7.60L239.51 7.60Q238.94 6.78 237.80 6.78L237.80 6.78L237.80 6.78Q236.67 6.78 236.10 7.60L236.10 7.60L236.10 7.60Q235.54 8.43 235.54 9.77L235.54 9.77L235.54 11.79L235.54 11.79Q235.54 13.23 236.10 14.01L236.10 14.01L236.10 14.01Q236.67 14.78 237.80 14.78ZM252.46 5.88L255.29 15.18L255.46 15.18L255.46 5.88L256.63 5.88L256.63 15.68L254.28 15.68L251.45 6.38L251.29 6.38L251.29 15.68L250.11 15.68L250.11 5.88L252.46 5.88ZM271.25 9.21L271.25 8.71L271.25 8.71Q271.25 8.23 271.06 7.87L271.06 7.87L271.06 7.87Q270.87 7.50 270.55 7.27L270.55 7.27L270.55 7.27Q270.23 7.03 269.81 6.90L269.81 6.90L269.81 6.90Q269.39 6.78 268.93 6.78L268.93 6.78L268.93 6.78Q268.52 6.78 268.16 6.88L268.16 6.88L268.16 6.88Q267.79 6.99 267.51 7.18L267.51 7.18L267.51 7.18Q267.22 7.38 267.05 7.66L267.05 7.66L267.05 7.66Q266.88 7.95 266.88 8.33L266.88 8.33L266.88 8.41L266.88 8.41Q266.88 8.82 267.05 9.11L267.05 9.11L267.05 9.11Q267.22 9.39 267.55 9.60L267.55 9.60L267.55 9.60Q267.88 9.80 268.37 9.93L268.37 9.93L268.37 9.93Q268.86 10.07 269.51 10.16L269.51 10.16L269.51 10.16Q271.05 10.40 271.78 11.07L271.78 11.07L271.78 11.07Q272.51 11.73 272.51 12.85L272.51 12.85L272.51 13.02L272.51 13.02Q272.51 13.65 272.29 14.17L272.29 14.17L272.29 14.17Q272.08 14.70 271.65 15.08L271.65 15.08L271.65 15.08Q271.22 15.46 270.59 15.67L270.59 15.67L270.59 15.67Q269.96 15.88 269.14 15.88L269.14 15.88L269.14 15.88Q268.20 15.88 267.48 15.60L267.48 15.60L267.48 15.60Q266.76 15.33 266.27 14.85L266.27 14.85L266.27 14.85Q265.79 14.36 265.54 13.71L265.54 13.71L265.54 13.71Q265.29 13.06 265.29 12.29L265.29 12.29L265.29 11.87L266.46 11.87L266.46 12.21L266.46 12.21Q266.46 13.50 267.17 14.14L267.17 14.14L267.17 14.14Q267.88 14.78 269.14 14.78L269.14 14.78L269.14 14.78Q270.23 14.78 270.78 14.30L270.78 14.30L270.78 14.30Q271.33 13.82 271.33 13.02L271.33 13.02L271.33 12.94L271.33 12.94Q271.33 12.17 270.77 11.76L270.77 11.76L270.77 11.76Q270.20 11.35 268.93 11.17L268.93 11.17L268.93 11.17Q268.18 11.07 267.59 10.87L267.59 10.87L267.59 10.87Q266.99 10.67 266.57 10.34L266.57 10.34L266.57 10.34Q266.15 10.01 265.93 9.55L265.93 9.55L265.93 9.55Q265.71 9.09 265.71 8.46L265.71 8.46L265.71 8.29L265.71 8.29Q265.71 7.71 265.94 7.24L265.94 7.24L265.94 7.24Q266.18 6.76 266.61 6.41L266.61 6.41L266.61 6.41Q267.04 6.06 267.63 5.87L267.63 5.87L267.63 5.87Q268.23 5.68 268.94 5.68L268.94 5.68L268.94 5.68Q269.77 5.68 270.42 5.92L270.42 5.92L270.42 5.92Q271.07 6.16 271.52 6.56L271.52 6.56L271.52 6.56Q271.96 6.96 272.20 7.50L272.20 7.50L272.20 7.50Q272.43 8.04 272.43 8.62L272.43 8.62L272.43 9.21L271.25 9.21Z"></path></g></svg>