<svg data-v-423bf9ae="" xmlns="http://www.w3.org/2000/svg" viewBox="0 0 245 90" class="iconLeft"><!----><!----><!----><g data-v-423bf9ae="" id="9859a4bc-bd52-40db-85ff-4c283975f8e7" fill="#444444" transform="matrix(4.255319118499756,0,0,4.255319118499756,140.02906799316406,3.085109233856201)"><path d="M6.17 9.02L6.17 9.02Q6.57 9.52 6.78 10.26L6.78 10.26L6.78 10.26Q6.99 11.00 7.08 11.78L7.08 11.78L7.08 11.78Q7.17 12.56 7.24 13.78L7.24 13.78L7.24 13.78Q7.32 15.19 7.41 15.82L7.41 15.82L7.41 15.82Q7.71 15.82 7.85 15.87L7.85 15.87L7.85 15.87Q7.99 15.92 7.99 16.11L7.99 16.11L7.99 16.11Q7.99 16.80 6.99 16.80L6.99 16.80L6.99 16.80Q6.69 16.80 5.91 16.70L5.91 16.70L5.91 16.70Q5.73 16.52 5.68 16.30L5.68 16.30L5.68 16.21L5.68 16.21Q5.68 16.11 5.77 15.72L5.77 15.72L5.77 15.72Q5.81 15.51 5.86 15.23L5.86 15.23L5.86 15.23Q5.91 14.94 5.91 14.63L5.91 14.63L5.91 14.63Q5.91 14.20 5.84 13.83L5.84 13.83L5.84 13.83Q5.77 13.38 5.77 12.70L5.77 12.70L5.77 12.70Q5.74 11.87 5.66 11.36L5.66 11.36L5.66 11.36Q5.57 10.85 5.25 10.40L5.25 10.40L5.08 10.15L5.08 10.15Q4.89 9.83 4.66 9.60L4.66 9.60L4.66 9.60Q4.66 9.48 4.60 9.41L4.60 9.41L4.60 9.41Q4.54 9.34 4.38 9.24L4.38 9.24L4.38 9.24Q4.19 9.13 4.06 9.02L4.06 9.02L4.06 9.02Q3.77 9.02 3.62 9.07L3.62 9.07L3.62 9.07Q3.47 9.11 3.47 9.30L3.47 9.30L3.47 9.30Q3.33 10.01 3.33 10.88L3.33 10.88L3.33 10.88Q3.33 11.48 3.42 12.54L3.42 12.54L3.42 12.54Q3.47 13.47 3.47 13.80L3.47 13.80L3.47 13.80Q3.47 14.42 3.52 14.82L3.52 14.82L3.52 14.82Q3.57 15.22 3.75 15.62L3.75 15.62L3.75 15.62Q3.75 15.72 3.83 15.79L3.83 15.79L3.83 15.79Q3.91 15.85 4.06 15.92L4.06 15.92L4.06 15.92Q4.20 15.99 4.28 16.04L4.28 16.04L4.28 16.04Q4.35 16.10 4.35 16.20L4.35 16.20L4.35 16.20Q4.35 16.25 4.35 16.42L4.35 16.42L4.35 16.42Q4.35 16.59 4.30 16.66L4.30 16.66L4.30 16.66Q4.24 16.73 4.10 16.73L4.10 16.73L4.10 16.73Q3.85 16.73 3.51 16.69L3.51 16.69L3.51 16.69Q3.39 16.69 3.11 16.67L3.11 16.67L3.11 16.67Q2.83 16.65 2.62 16.65L2.62 16.65L2.62 16.65Q1.99 16.65 1.67 16.81L1.67 16.81L1.67 16.81Q1.29 16.81 1.11 16.79L1.11 16.79L1.11 16.79Q0.92 16.76 0.77 16.63L0.77 16.63L0.77 16.63Q0.62 16.49 0.46 16.20L0.46 16.20L0.46 16.20Q0.67 16.02 0.87 15.97L0.87 15.97L0.87 15.97Q1.06 15.92 1.36 15.92L1.36 15.92L1.36 10.81L1.36 10.81Q1.36 10.67 1.39 10.48L1.39 10.48L1.39 10.48Q1.41 10.29 1.43 10.21L1.43 10.21L1.43 10.21Q1.50 9.88 1.50 9.62L1.50 9.62L1.50 9.62Q1.50 9.30 1.36 9.02L1.36 9.02L1.36 9.02Q1.36 8.82 1.40 8.65L1.40 8.65L1.40 8.65Q1.46 8.29 1.46 8.23L1.46 8.23L1.46 8.23Q1.48 7.76 1.48 7.55L1.48 7.55L1.48 7.55Q1.48 7.11 1.43 6.22L1.43 6.22L1.43 6.22Q1.41 6.05 1.39 5.54L1.39 5.54L1.39 5.54Q1.36 5.03 1.36 4.51L1.36 4.51L1.36 4.51Q0.88 4.51 0.57 4.40L0.57 4.40L0.57 4.40Q0.27 4.30 0.27 4.07L0.27 4.07L0.27 4.07Q0.27 3.64 0.40 3.45L0.40 3.45L0.40 3.45Q0.53 3.26 0.78 3.22L0.78 3.22L0.78 3.22Q1.02 3.18 1.57 3.18L1.57 3.18L1.57 3.18Q1.72 3.18 1.92 3.09L1.92 3.09L1.92 3.09Q2.09 3.01 2.24 3.01L2.24 3.01L2.24 3.01Q3.08 2.87 3.86 2.87L3.86 2.87L3.86 2.87Q5.10 2.87 5.97 3.25L5.97 3.25L5.97 3.25Q6.85 3.63 7.06 4.51L7.06 4.51L7.06 4.51Q7.24 5.24 7.24 5.85L7.24 5.85L7.24 5.85Q7.24 6.47 7.06 6.90L7.06 6.90L7.06 6.90Q6.94 7.18 6.69 7.52L6.69 7.52L6.69 7.52Q6.43 7.85 6.17 8.11L6.17 8.11L5.87 8.41L5.87 8.41Q5.87 8.58 6.02 8.71L6.02 8.71L6.02 8.71Q6.17 8.86 6.17 9.02L6.17 9.02ZM3.19 3.93L3.19 3.93Q3.19 5.31 3.30 7.63L3.30 7.63L3.30 7.63Q3.30 7.78 3.54 7.78L3.54 7.78L3.54 7.78Q3.84 7.78 4.31 7.59L4.31 7.59L4.31 7.59Q4.79 7.39 4.97 7.21L4.97 7.21L4.97 7.21Q4.97 7.04 5.11 6.57L5.11 6.57L5.11 6.57Q5.22 6.22 5.25 6.02L5.25 6.02L5.25 6.02Q5.31 5.73 5.31 5.54L5.31 5.54L5.31 5.54Q5.31 5.40 5.28 5.22L5.28 5.22L5.28 5.22Q5.25 5.04 5.25 4.82L5.25 4.82L5.25 4.82Q5.25 4.56 5.14 4.40L5.14 4.40L5.14 4.40Q5.03 4.24 4.87 4.10L4.87 4.10L4.87 4.10Q4.72 3.96 4.66 3.91L4.66 3.91L3.19 3.93ZM14.01 15.65L14.01 15.65Q14.01 13.79 13.96 12.54L13.96 12.54L13.96 12.54Q13.92 11.30 13.71 10.32L13.71 10.32L13.71 10.32Q13.43 10.32 12.80 10.19L12.80 10.19L12.80 10.19Q11.90 10.02 11.38 10.02L11.38 10.02L11.38 10.02Q11.17 10.22 11.12 10.57L11.12 10.57L11.12 10.57Q11.07 10.92 11.07 11.54L11.07 11.54L11.07 11.54Q10.86 12.32 10.81 13.24L10.81 13.24L10.81 13.24Q10.75 14.17 10.75 15.67L10.75 15.67L10.75 15.67Q10.88 15.76 10.99 15.79L10.99 15.79L10.99 15.79Q11.07 15.81 11.23 15.81L11.23 15.81L11.23 15.81Q11.37 15.81 11.47 15.83L11.47 15.83L11.47 15.83Q11.56 15.85 11.65 15.93L11.65 15.93L11.65 15.93Q11.65 16.16 11.63 16.32L11.63 16.32L11.63 16.32Q11.62 16.48 11.61 16.52L11.61 16.52L11.61 16.52Q11.24 16.77 10.86 16.79L10.86 16.79L10.86 16.79Q10.79 16.80 10.64 16.80L10.64 16.80L10.64 16.80Q10.37 16.80 10.12 16.76L10.12 16.76L10.12 16.76Q9.79 16.73 9.62 16.73L9.62 16.73L9.62 16.73Q9.30 16.73 9.02 16.83L9.02 16.83L8.40 16.24L8.40 16.24Q8.92 15.67 9.28 15.67L9.28 15.67L9.28 15.67Q9.49 15.67 9.54 15.52L9.54 15.52L9.54 15.52Q9.59 15.37 9.59 15.06L9.59 15.06L9.59 15.06Q9.76 13.96 10.08 11.42L10.08 11.42L10.08 11.42Q10.35 9.30 10.46 8.55L10.46 8.55L10.46 8.55Q10.46 7.94 10.63 7.32L10.63 7.32L10.63 7.32Q10.81 6.71 11.07 6.20L11.07 6.20L11.07 6.20Q11.28 5.39 11.63 4.72L11.63 4.72L11.63 4.72Q11.98 4.05 12.53 3.25L12.53 3.25L12.53 3.25Q12.56 3.22 12.68 3.12L12.68 3.12L12.68 3.12Q12.80 3.02 12.98 2.93L12.98 2.93L12.98 2.93Q13.16 2.84 13.36 2.84L13.36 2.84L13.36 2.84Q13.55 2.84 13.71 2.94L13.71 2.94L13.71 2.94Q14 3.08 14.29 3.46L14.29 3.46L14.29 3.46Q14.57 3.84 14.76 4.27L14.76 4.27L14.76 4.27Q14.94 4.70 14.94 5.01L14.94 5.01L14.94 5.01Q15.27 5.70 15.39 6.59L15.39 6.59L15.39 6.59Q15.50 7.57 15.78 10.78L15.78 10.78L15.78 10.78Q15.92 12.56 16.07 14.17L16.07 14.17L16.07 15.96L16.07 15.96Q16.07 16.03 16.13 16.12L16.13 16.12L16.13 16.12Q16.18 16.21 16.20 16.24L16.20 16.24L16.20 16.24Q16.35 16.42 16.35 16.55L16.35 16.55L16.35 16.55Q16.35 16.72 16.07 16.84L16.07 16.84L15.71 16.76L15.71 16.76Q15.29 16.76 14.87 16.80L14.87 16.80L14.87 16.80Q14.73 16.81 14.48 16.83L14.48 16.83L14.48 16.83Q14.22 16.84 14.01 16.84L14.01 16.84L14.01 16.84Q13.93 16.86 13.76 16.88L13.76 16.88L13.76 16.88Q13.59 16.90 13.50 16.90L13.50 16.90L13.50 16.90Q13.23 16.90 13.23 16.73L13.23 16.73L13.23 16.73Q13.23 16.58 13.36 16.32L13.36 16.32L13.36 16.32Q13.50 16.06 13.69 15.86L13.69 15.86L13.69 15.86Q13.87 15.65 14.01 15.65L14.01 15.65ZM12.53 4.70L12.53 4.70Q12.31 5.36 12.08 6.13L12.08 6.13L12.08 6.13Q11.84 6.90 11.65 7.67L11.65 7.67L11.65 7.67Q11.65 7.84 11.52 8.34L11.52 8.34L11.52 8.34Q11.38 8.96 11.38 9.17L11.38 9.17L11.38 9.17Q11.96 9.34 12.51 9.39L12.51 9.39L12.51 9.39Q13.06 9.44 13.71 9.44L13.71 9.44L13.71 7.67L13.71 7.67Q13.71 7.04 13.55 6.21L13.55 6.21L13.55 6.21Q13.38 5.38 13.15 4.70L13.15 4.70L13.15 4.70Q13.15 4.63 13.09 4.52L13.09 4.52L13.09 4.52Q13.03 4.41 12.84 4.41L12.84 4.41L12.53 4.70ZM24.56 5.36L24.56 5.36Q24.56 5.54 24.41 5.59L24.41 5.59L24.41 5.59Q24.26 5.64 23.98 5.64L23.98 5.64L23.98 5.64Q23.79 5.26 23.74 4.85L23.74 4.85L23.74 4.85Q23.70 4.44 23.70 3.65L23.70 3.65L23.70 3.65Q22.55 3.65 21.84 3.70L21.84 3.70L21.84 3.70Q21.13 3.75 20.55 3.95L20.55 3.95L20.55 3.95Q20.44 4.19 20.44 4.76L20.44 4.76L20.44 4.76Q20.44 5.07 20.50 5.85L20.50 5.85L20.50 5.85Q20.55 6.69 20.55 7.08L20.55 7.08L20.55 7.08Q20.55 7.17 20.54 7.25L20.54 7.25L20.54 7.25Q20.52 7.32 20.51 7.39L20.51 7.39L20.51 7.39Q20.44 7.64 20.44 7.87L20.44 7.87L20.44 7.87Q20.44 8.09 20.55 8.22L20.55 8.22L21.42 8.22L21.42 7.08L21.42 7.08Q21.94 7.06 22.13 7.43L22.13 7.43L22.13 7.43Q22.32 7.81 22.32 8.47L22.32 8.47L22.32 8.47Q22.32 8.72 22.29 9.14L22.29 9.14L22.27 9.65L22.27 9.65Q22.06 9.86 21.96 9.89L21.96 9.89L21.96 9.89Q21.85 9.93 21.42 9.93L21.42 9.93L21.42 9.37L21.42 9.37Q21.24 9.17 21.04 9.12L21.04 9.12L21.04 9.12Q20.85 9.07 20.55 9.07L20.55 9.07L20.55 9.07Q20.37 9.27 20.29 9.48L20.29 9.48L20.29 9.48Q20.22 9.69 20.22 9.95L20.22 9.95L20.22 9.95Q20.22 10.09 20.24 10.43L20.24 10.43L20.24 10.43Q20.29 10.72 20.29 11.07L20.29 11.07L20.29 11.07Q20.10 11.44 20.05 11.93L20.05 11.93L20.05 11.93Q20.01 12.42 20.01 13.08L20.01 13.08L20.01 13.93L20.01 13.93Q20.01 14.49 20.05 14.88L20.05 14.88L20.05 14.88Q20.10 15.26 20.29 15.64L20.29 15.64L20.29 15.64Q20.44 15.64 20.69 15.87L20.69 15.87L20.69 15.87Q20.93 16.10 20.93 16.28L20.93 16.28L20.93 16.28Q20.93 16.49 20.55 16.49L20.55 16.49L20.55 16.49Q20.55 16.62 20.47 16.62L20.47 16.62L20.47 16.62Q20.43 16.62 20.27 16.55L20.27 16.55L20.27 16.55Q20.10 16.49 20.01 16.49L20.01 16.49L20.01 16.49Q19.89 16.49 19.77 16.54L19.77 16.54L19.77 16.54Q19.64 16.59 19.60 16.60L19.60 16.60L19.60 16.60Q19.57 16.62 19.36 16.70L19.36 16.70L19.36 16.70Q19.14 16.77 18.84 16.77L18.84 16.77L18.84 16.77Q18.70 16.77 18.28 16.63L18.28 16.63L18.28 16.63Q17.84 16.49 17.71 16.49L17.71 16.49L17.71 16.49Q17.53 16.49 17.48 16.34L17.48 16.34L17.48 16.34Q17.43 16.20 17.43 15.92L17.43 15.92L17.43 15.92Q17.56 15.79 17.68 15.73L17.68 15.73L17.68 15.73Q17.81 15.67 17.89 15.65L17.89 15.65L17.89 15.65Q17.96 15.64 17.99 15.64L17.99 15.64L17.99 15.64Q18.23 15.51 18.30 15.24L18.30 15.24L18.30 15.24Q18.37 14.97 18.41 14.41L18.41 14.41L18.41 14.41Q18.44 13.72 18.56 13.34L18.56 13.34L18.56 11.07L18.56 11.07Q18.56 10.93 18.63 10.56L18.63 10.56L18.63 10.56Q18.69 10.28 18.69 10.15L18.69 10.15L18.69 10.15Q18.69 9.90 18.56 9.65L18.56 9.65L18.56 9.65Q18.56 9.51 18.66 9.27L18.66 9.27L18.66 9.27Q18.84 8.85 18.84 8.51L18.84 8.51L18.84 8.51Q18.84 8.08 18.70 7.07L18.70 7.07L18.70 7.07Q18.56 6.06 18.56 5.64L18.56 5.64L18.56 5.64Q18.56 5.46 18.62 5.04L18.62 5.04L18.62 5.04Q18.69 4.62 18.69 4.30L18.69 4.30L18.69 4.30Q18.69 3.91 18.56 3.65L18.56 3.65L18.56 3.65Q18.44 3.65 17.98 3.72L17.98 3.72L17.98 3.72Q17.64 3.78 17.51 3.78L17.51 3.78L17.51 3.78Q17.26 3.78 17.14 3.65L17.14 3.65L17.14 3.65Q16.93 3.44 16.93 3.23L16.93 3.23L16.93 3.23Q16.93 3.01 17.14 2.80L17.14 2.80L22.85 2.80L23.98 2.80L23.98 2.80Q24.33 2.80 24.46 3.15L24.46 3.15L24.46 3.15Q24.60 3.50 24.60 4.10L24.60 4.10L24.60 4.10Q24.60 4.37 24.57 4.82L24.57 4.82L24.56 5.36Z"></path></g><!----><g data-v-423bf9ae="" id="2c33d50b-8fa0-4fcf-ae0e-cdac367cf74c" transform="matrix(1.4256069660186768,0,0,1.4256069660186768,-9.781061172485352,-25.846065521240234)" stroke="none" fill="#606060"><path d="M89.405 18.435h-78.81A3.1 3.1 0 0 0 7.5 21.53v56.941a3.1 3.1 0 0 0 3.095 3.095h78.811a3.099 3.099 0 0 0 3.095-3.095V21.529a3.1 3.1 0 0 0-3.096-3.094zm-78.81 1.238h78.811a1.86 1.86 0 0 1 1.857 1.856v9.075c-.068-.01-.136-.021-.207-.021H8.951c-.073 0-.143.011-.213.021v-9.076c0-1.022.833-1.855 1.857-1.855zM91.263 77.14a.207.207 0 0 1-.207.206H8.951a.206.206 0 0 1-.206-.206V32.027c0-.113.093-.206.206-.206h82.104c.114 0 .207.093.207.206V77.14zm-1.858 3.187h-78.81a1.855 1.855 0 0 1-1.848-1.764c.067.01.135.021.204.021h82.104c.068 0 .133-.011.197-.02a1.854 1.854 0 0 1-1.847 1.763z"></path><path d="M28.178 27.787c1.45 0 2.63-1.18 2.63-2.63 0-1.451-1.18-2.631-2.63-2.631s-2.631 1.18-2.631 2.631c0 1.45 1.181 2.63 2.631 2.63zm0-4.022a1.394 1.394 0 0 1 0 2.786 1.394 1.394 0 0 1 0-2.786zM21.458 27.787a2.633 2.633 0 0 0 2.631-2.63 2.634 2.634 0 0 0-2.631-2.631c-1.45 0-2.63 1.18-2.63 2.631 0 1.45 1.18 2.63 2.63 2.63zm0-4.022a1.393 1.393 0 1 1 0 2.787 1.393 1.393 0 0 1 0-2.787zM14.738 27.787a2.633 2.633 0 0 0 2.631-2.63 2.634 2.634 0 0 0-2.631-2.631c-1.45 0-2.63 1.18-2.63 2.631 0 1.45 1.18 2.63 2.63 2.63zm0-4.022a1.393 1.393 0 1 1 0 2.787 1.393 1.393 0 0 1 0-2.787zM26.598 65.915c-.624 0-1.395-.429-2.289-1.276-1.605-1.519-2.16-2.371-1.2-3.405l8.79-8.811-8.774-8.782c-.676-.676-.57-1.195-.401-1.57.242-.544.814-1.117 1.479-1.781.829-.829 1.542-1.542 2.241-1.542.342 0 .679.172 1.033.526l11.769 11.755c.311.254.521.659.564 1.134.048.537-.134 1.152-.452 1.533L27.53 65.514c-.287.273-.589.401-.932.401zM23.846 42.57c-.009 0 .027.068.154.194l9.211 9.221a.62.62 0 0 1 0 .875L24 62.093a.804.804 0 0 0-.133.166c.012.047.125.377 1.292 1.48.979.927 1.42.938 1.438.938v.619l.01-.62-.001.001c-.003 0 .02-.012.061-.05L38.444 52.86c.061-.077.151-.357.131-.589a.444.444 0 0 0-.162-.328L26.601 40.148c-.144-.143-.215-.171-.215-.171-.182.06-.886.764-1.307 1.184-.531.532-1.077 1.078-1.227 1.413-.002-.003-.004-.004-.006-.004zM55.834 71.436H40.498c-1.594 0-1.92-1.234-1.92-3.088s.326-3.088 1.92-3.088h15.336c1.503 0 1.787 1.085 1.787 3.088 0 2.048-.275 3.088-1.787 3.088zm-15.336-4.939c-.366 0-.683 0-.683 1.851s.316 1.851.683 1.851h15.336c.354 0 .55 0 .55-1.851s-.219-1.851-.55-1.851H40.498z"></path></g><!----></svg>